<?xml version="1.0" encoding="UTF-8" standalone="no"?>
<!-- Created with Inkscape (http://www.inkscape.org/) -->

<svg
   xmlns:dc="http://purl.org/dc/elements/1.1/"
   xmlns:cc="http://creativecommons.org/ns#"
   xmlns:rdf="http://www.w3.org/1999/02/22-rdf-syntax-ns#"
   xmlns:svg="http://www.w3.org/2000/svg"
   xmlns="http://www.w3.org/2000/svg"
   xmlns:sodipodi="http://sodipodi.sourceforge.net/DTD/sodipodi-0.dtd"
   xmlns:inkscape="http://www.inkscape.org/namespaces/inkscape"
   width="210mm"
   height="297mm"
   viewBox="0 0 210 297"
   version="1.1"
   id="svg8"
   inkscape:export-filename="D:\Designs\StackFlacker\Stack - 48.png"
   inkscape:export-xdpi="1.9049994"
   inkscape:export-ydpi="1.9049994"
   inkscape:version="0.92.1 r15371"
   sodipodi:docname="Trashcan.svg">
  <defs
     id="defs2" />
  <sodipodi:namedview
     id="base"
     pagecolor="#ffffff"
     bordercolor="#666666"
     borderopacity="1.0"
     inkscape:pageopacity="0.0"
     inkscape:pageshadow="2"
     inkscape:zoom="0.12374369"
     inkscape:cx="3100.7157"
     inkscape:cy="-1658.8296"
     inkscape:document-units="mm"
     inkscape:current-layer="layer1"
     showgrid="false"
     showborder="false"
     inkscape:window-width="1920"
     inkscape:window-height="1017"
     inkscape:window-x="-8"
     inkscape:window-y="-8"
     inkscape:window-maximized="1" />
  <metadata
     id="metadata5">
    <rdf:RDF>
      <cc:Work
         rdf:about="">
        <dc:format>image/svg+xml</dc:format>
        <dc:type
           rdf:resource="http://purl.org/dc/dcmitype/StillImage" />
        <dc:title></dc:title>
      </cc:Work>
    </rdf:RDF>
  </metadata>
  <g
     inkscape:label="Layer 1"
     inkscape:groupmode="layer"
     id="layer1">
    <path
       style="opacity:1;fill:#ffffff;fill-opacity:1;stroke:none;stroke-width:4.4031496;stroke-linejoin:round;stroke-miterlimit:4;stroke-dasharray:none;stroke-dashoffset:0;stroke-opacity:1"
       d="M -757.54297 188.11328 L -757.54297 263.70312 L -757.54492 263.70312 L -757.54492 339.29297 L -757.54297 339.29297 L -757.54297 414.88477 L -757.54492 414.88477 L -757.54492 490.47461 L -757.54492 566.06445 L -757.54492 641.65625 L -757.54492 717.24609 L -757.54492 792.83789 L -757.54492 868.42773 L -757.54492 944.01758 L -757.54492 1019.6094 L -757.54492 1095.1992 L -757.54492 1170.7891 L -757.54492 1246.3809 L -757.54492 1321.9707 L -757.54492 1397.5605 L -757.54492 1473.1523 L -757.54492 1548.7422 L -757.54492 1624.332 L -757.54492 1699.9238 L -757.54492 1775.5137 L -757.54492 1851.1055 L -757.54492 1926.6953 L -757.54492 2002.2852 L -757.54492 2077.877 L -757.54492 2153.4668 L -757.54492 2229.0566 L -757.54492 2304.6484 L -757.54492 2380.2383 L -757.54492 2455.8281 L -757.54492 2531.4199 L -757.54492 2607.0098 L -681.95508 2607.0098 L -606.36328 2607.0098 L -530.77344 2607.0098 L -455.18359 2607.0098 L -379.5918 2607.0098 L -304.00195 2607.0098 L -228.41016 2607.0098 L -152.82031 2607.0098 L -77.230469 2607.0098 L -1.6386719 2607.0098 L 73.951172 2607.0098 L 149.54102 2607.0098 L 225.13281 2607.0098 L 300.72266 2607.0098 L 376.31445 2607.0098 L 451.9043 2607.0098 L 527.49414 2607.0098 L 603.08594 2607.0098 L 678.67578 2607.0098 L 754.26562 2607.0098 L 829.85742 2607.0098 L 905.44727 2607.0098 L 981.03906 2607.0098 L 1056.6289 2607.0098 L 1132.2188 2607.0098 L 1207.8105 2607.0098 L 1283.4004 2607.0098 L 1358.9902 2607.0098 L 1434.582 2607.0098 L 1510.1719 2607.0098 L 1585.7617 2607.0098 L 1661.3535 2607.0098 L 1661.3535 2531.4199 L 1661.3535 2455.8281 L 1661.3535 2380.2383 L 1661.3535 2304.6484 L 1661.3535 2229.0566 L 1661.3535 2153.4668 L 1661.3535 2077.877 L 1661.3535 2002.2852 L 1661.3535 1926.6953 L 1661.3535 1851.1035 L 1661.3535 1775.5137 L 1661.3535 1699.9238 L 1661.3535 1624.332 L 1661.3535 1548.7422 L 1661.3535 1473.1523 L 1661.3535 1397.5605 L 1661.3535 1321.9707 L 1661.3535 1246.3809 L 1661.3535 1170.7891 L 1661.3535 1095.1992 L 1661.3535 1019.6094 L 1661.3535 944.01758 L 1661.3535 868.42773 L 1661.3535 792.83789 L 1661.3535 717.24609 L 1661.3535 641.65625 L 1661.3535 566.06445 L 1661.3535 490.47461 L 1661.3535 414.88477 L 1661.3535 339.29297 L 1661.3535 263.70312 L 1661.3535 188.11328 L 1585.7637 188.11328 L 1510.1738 188.11328 L 1434.582 188.11328 L 1358.9922 188.11328 L 1283.4004 188.11328 L 1207.8105 188.11328 L 1132.2207 188.11328 L 1056.6289 188.11328 L 981.03906 188.11328 L 905.44922 188.11328 L 829.85742 188.11328 L 754.26758 188.11328 L 678.67578 188.11328 L 603.08594 188.11328 L 527.49609 188.11328 L 451.9043 188.11328 L 376.31445 188.11328 L 300.72461 188.11328 L 225.13281 188.11328 L 149.54297 188.11328 L 73.953125 188.11328 L -1.6386719 188.11328 L -77.228516 188.11328 L -152.82031 188.11328 L -228.41016 188.11328 L -304 188.11328 L -379.5918 188.11328 L -455.18164 188.11328 L -530.77148 188.11328 L -606.36328 188.11328 L -681.95312 188.11328 L -757.54297 188.11328 z M 73.951172 263.70312 L 73.953125 263.70312 L 73.953125 339.29297 L 73.953125 414.88477 L 73.953125 490.47461 L 73.951172 490.47461 L 73.951172 414.88477 L 73.951172 339.29297 L 73.951172 263.70312 z M 905.44727 263.70312 L 905.44922 263.70312 L 905.44922 339.29297 L 905.44922 414.88477 L 905.44922 490.47461 L 905.44727 490.47461 L 905.44727 414.88477 L 905.44727 339.29297 L 905.44727 263.70312 z M -304.00195 1095.1992 L -304 1095.1992 L -304 1170.7891 L -304.00195 1170.7891 L -304.00195 1095.1992 z M 527.49414 1095.1992 L 527.49609 1095.1992 L 527.49609 1170.7891 L 527.49609 1246.3809 L 527.49609 1321.9707 L 527.49609 1397.5605 L 527.49414 1397.5605 L 527.49414 1321.9707 L 527.49414 1246.3809 L 527.49414 1170.7891 L 527.49414 1095.1992 z M 527.49414 1624.332 L 527.49609 1624.332 L 527.49609 1699.9238 L 527.49414 1699.9238 L 527.49414 1624.332 z M 1358.9902 1699.9238 L 1358.9922 1699.9238 L 1358.9922 1775.5137 L 1358.9922 1851.1055 L 1358.9922 1926.6953 L 1358.9922 2002.2852 L 1358.9902 2002.2852 L 1358.9902 1926.6953 L 1358.9902 1851.1035 L 1358.9902 1775.5137 L 1358.9902 1699.9238 z "
       transform="scale(0.26458333)"
       id="rect9608" />
    <g
       id="g14255"
       transform="matrix(1.0620639,0,0,1.0620766,-75.546511,-84.903797)"
       style="stroke-width:0.94155729">
      <path
         inkscape:connector-curvature="0"
         id="rect9608-1-8-8-3-7"
         d="m -100.43323,169.77155 v 25.8333 25.83262 25.83267 25.83331 25.83262 25.83267 25.83331 25.83262 25.83331 25.83267 h 25.831111 25.831112 25.83177 25.8310857 25.8311253 25.831769 25.831099 v -25.83267 -25.83331 -25.83262 -25.83331 -25.83267 -25.83262 -25.83331 -25.83267 -25.83262 -25.8333 H 54.554743 28.723619 2.8918487 -22.939237 -48.771007 -74.602119 Z m 25.831111,25.8333 h 25.831112 25.83177 25.8310857 25.8317703 25.831124 v 25.83262 25.83267 25.83331 25.83262 25.83267 25.83331 25.83262 25.83331 H 28.722974 2.8918487 -22.939237 -48.771007 -74.602119 v -25.83331 -25.83262 -25.83331 -25.83267 -25.83262 -25.83331 -25.83267 z"
         style="opacity:1;fill:#808080;fill-opacity:1;stroke:#808080;stroke-width:1.09691417;stroke-linejoin:round;stroke-miterlimit:4;stroke-dasharray:none;stroke-dashoffset:0;stroke-opacity:1" />
      <path
         inkscape:connector-curvature="0"
         id="rect9608-0-8-5-8-27"
         d="m -74.602132,195.60485 v 25.83262 25.83267 25.83331 25.83262 25.83267 25.83331 25.83262 25.83331 h 25.831125 25.83177 H 2.8918487 28.722974 54.554743 V 376.43467 350.60205 324.76874 298.93607 273.10345 247.27014 221.43747 195.60485 H 28.723619 2.8918487 -22.939237 -48.771007 Z"
         style="opacity:1;fill:#d35fbc;fill-opacity:1;stroke:#000000;stroke-width:1.09691417;stroke-linejoin:round;stroke-miterlimit:4;stroke-dasharray:none;stroke-dashoffset:0;stroke-opacity:0" />
      <path
         inkscape:connector-curvature="0"
         id="rect9608-1-8-8-3-7-3"
         d="m -22.939528,221.4368 v 25.8333 25.83262 25.83267 25.83331 25.83262 25.83267 25.83331 25.83262 25.83331 25.83267 h 25.831099 25.831112 25.83177 25.831085 25.831122 25.83179 25.83109 V 453.93323 428.09992 402.2673 376.43399 350.60132 324.7687 298.93539 273.10272 247.2701 221.4368 H 132.04845 106.21732 80.385538 54.554453 28.722683 2.891571 Z m 25.831099,25.8333 h 25.831112 25.83177 25.831085 25.831782 25.83113 v 25.83262 25.83267 25.83331 25.83262 25.83267 25.83331 25.83262 25.83331 H 106.21666 80.385538 54.554453 28.722683 2.891571 V 428.09992 402.2673 376.43399 350.60132 324.7687 298.93539 273.10272 Z"
         style="opacity:1;fill:#808080;fill-opacity:1;stroke:#808080;stroke-width:1.09691417;stroke-linejoin:round;stroke-miterlimit:4;stroke-dasharray:none;stroke-dashoffset:0;stroke-opacity:1" />
      <path
         inkscape:connector-curvature="0"
         id="rect9608-0-8-5-8-27-4"
         d="m 2.8916873,247.27019 v 25.83262 25.83267 25.83331 25.83262 25.83267 25.83331 25.83262 25.83331 h 25.8311247 25.83177 25.831086 25.831122 25.83179 V 428.10001 402.26739 376.43408 350.60141 324.76879 298.93548 273.10281 247.27019 H 106.21745 80.385668 54.554582 28.722812 Z"
         style="opacity:1;fill:#55ddff;fill-opacity:1;stroke:#55ddff;stroke-width:1.09691417;stroke-linejoin:round;stroke-miterlimit:4;stroke-dasharray:none;stroke-dashoffset:0;stroke-opacity:1" />
      <path
         inkscape:connector-curvature="0"
         id="rect9608-1-8-8-3-7-4"
         d="m 54.554657,273.10257 v 25.83329 25.83263 25.83266 25.83331 25.83263 25.83266 25.83332 25.83262 25.83331 25.83267 h 25.831111 25.831102 25.83178 25.83109 25.83111 25.83178 25.8311 V 505.599 479.76569 453.93307 428.09975 402.26709 376.43446 350.60115 324.76849 298.93586 273.10257 H 209.54263 183.7115 157.87974 132.04865 106.21687 80.385768 Z m 25.831111,25.83329 h 25.831102 25.83178 25.83109 25.83176 25.83113 v 25.83263 25.83266 25.83331 25.83263 25.83266 25.83332 25.83262 25.83331 H 183.71085 157.87974 132.04865 106.21687 80.385768 v -25.83331 -25.83262 -25.83332 -25.83266 -25.83263 -25.83331 -25.83266 z"
         style="opacity:1;fill:#808080;fill-opacity:1;stroke:#808080;stroke-width:1.09691417;stroke-linejoin:round;stroke-miterlimit:4;stroke-dasharray:none;stroke-dashoffset:0;stroke-opacity:1" />
      <path
         inkscape:connector-curvature="0"
         id="rect9608-0-8-5-8-27-8"
         d="m 80.385755,298.93586 v 25.83263 25.83266 25.83331 25.83263 25.83266 25.83332 25.83262 25.83331 h 25.831115 25.83178 25.83109 25.83111 25.83178 V 479.76569 453.93307 428.09975 402.26709 376.43446 350.60115 324.76849 298.93586 H 183.7115 157.87974 132.04865 106.21687 Z"
         style="opacity:1;fill:#d35fbc;fill-opacity:1;stroke:#000000;stroke-width:1.09691417;stroke-linejoin:round;stroke-miterlimit:4;stroke-dasharray:none;stroke-dashoffset:0;stroke-opacity:0" />
      <path
         inkscape:connector-curvature="0"
         id="rect9608-1-8-8-3-7-3-9"
         d="m 132.04835,324.76824 v 25.8333 25.83263 25.83266 25.83331 25.83263 25.83266 25.83331 25.83263 25.83331 25.83266 h 25.83111 25.8311 25.83177 25.83109 25.83112 25.83179 25.83109 v -25.83266 -25.83331 -25.83263 -25.83331 -25.83266 -25.83263 -25.83331 -25.83266 -25.83263 -25.8333 h -25.83109 -25.83113 -25.83178 -25.83109 -25.83177 -25.8311 z m 25.83111,25.8333 h 25.8311 25.83177 25.83109 25.83178 25.83113 v 25.83263 25.83266 25.83331 25.83263 25.83266 25.83331 25.83263 25.83331 h -25.83179 -25.83112 -25.83109 -25.83177 -25.8311 v -25.83331 -25.83263 -25.83331 -25.83266 -25.83263 -25.83331 -25.83266 z"
         style="opacity:1;fill:#808080;fill-opacity:1;stroke:#808080;stroke-width:1.09691417;stroke-linejoin:round;stroke-miterlimit:4;stroke-dasharray:none;stroke-dashoffset:0;stroke-opacity:1" />
      <path
         inkscape:connector-curvature="0"
         id="rect9608-0-8-5-8-27-4-5"
         d="m 157.87957,350.60163 v 25.83263 25.83266 25.83331 25.83263 25.83266 25.83331 25.83263 25.83331 h 25.83112 25.83178 25.83109 25.83112 25.83179 v -25.83331 -25.83263 -25.83331 -25.83266 -25.83263 -25.83331 -25.83266 -25.83263 h -25.83113 -25.83178 -25.83109 -25.83178 z"
         style="opacity:1;fill:#55ddff;fill-opacity:1;stroke:#55ddff;stroke-width:1.09691417;stroke-linejoin:round;stroke-miterlimit:4;stroke-dasharray:none;stroke-dashoffset:0;stroke-opacity:1" />
      <path
         inkscape:connector-curvature="0"
         id="rect9608-1-8-8-3-7-5"
         d="m 209.54277,376.43409 v 25.8333 25.83262 25.83267 25.83332 25.83261 25.83267 25.83331 25.83262 25.83331 25.83267 h 25.8311 25.83112 25.83177 25.83109 25.83112 25.83177 25.8311 V 608.93052 583.09721 557.26459 531.43128 505.59861 479.766 453.93268 428.10001 402.26739 376.43409 h -25.8311 -25.83112 -25.83177 -25.83109 -25.83177 -25.83112 z m 25.8311,25.8333 h 25.83112 25.83177 25.83109 25.83177 25.83112 v 25.83262 25.83267 25.83332 25.83261 25.83267 25.83331 25.83262 25.83331 H 338.69897 312.86785 287.03676 261.20499 235.37387 V 583.09721 557.26459 531.43128 505.59861 479.766 453.93268 428.10001 Z"
         style="opacity:1;fill:#808080;fill-opacity:1;stroke:#808080;stroke-width:1.09691417;stroke-linejoin:round;stroke-miterlimit:4;stroke-dasharray:none;stroke-dashoffset:0;stroke-opacity:1" />
      <path
         inkscape:connector-curvature="0"
         id="rect9608-0-8-5-8-27-9"
         d="m 235.37386,402.26739 v 25.83262 25.83267 25.83332 25.83261 25.83267 25.83331 25.83262 25.83331 h 25.83113 25.83177 25.83109 25.83112 25.83177 V 583.09721 557.26459 531.43128 505.59861 479.766 453.93268 428.10001 402.26739 h -25.83112 -25.83177 -25.83109 -25.83177 z"
         style="opacity:1;fill:#d35fbc;fill-opacity:1;stroke:#d35fbc;stroke-width:1.09691417;stroke-linejoin:round;stroke-miterlimit:4;stroke-dasharray:none;stroke-dashoffset:0;stroke-opacity:1" />
      <path
         inkscape:connector-curvature="0"
         id="rect9608-1-8-8-3-7-3-97"
         d="m 287.03638,428.09975 v 25.83332 25.83261 25.83266 25.83331 25.83263 25.83266 25.83331 25.83263 25.83331 25.83266 h 25.8311 25.83111 25.83175 25.83109 25.83112 25.83179 25.8311 v -25.83266 -25.83331 -25.83263 -25.83331 -25.83266 -25.83263 -25.83331 -25.83266 -25.83261 -25.83332 h -25.8311 -25.83113 -25.83178 -25.83109 -25.83175 -25.83111 z m 25.8311,25.83332 h 25.83111 25.83175 25.83109 25.83178 25.83113 v 25.83261 25.83266 25.83331 25.83263 25.83266 25.83331 25.83263 25.83331 h -25.83179 -25.83112 -25.83109 -25.83175 -25.83111 v -25.83331 -25.83263 -25.83331 -25.83266 -25.83263 -25.83331 -25.83266 z"
         style="opacity:1;fill:#808080;fill-opacity:1;stroke:#808080;stroke-width:1.09691417;stroke-linejoin:round;stroke-miterlimit:4;stroke-dasharray:none;stroke-dashoffset:0;stroke-opacity:1" />
      <path
         inkscape:connector-curvature="0"
         id="rect9608-0-8-5-8-27-4-3"
         d="m 312.86759,453.93314 v 25.83263 25.83266 25.83331 25.83263 25.83266 25.83331 25.83263 25.83331 h 25.83113 25.83177 25.83108 25.83113 25.83178 v -25.83331 -25.83263 -25.83331 -25.83266 -25.83263 -25.83331 -25.83266 -25.83263 h -25.83112 -25.83179 -25.83108 -25.83177 z"
         style="opacity:1;fill:#55ddff;fill-opacity:1;stroke:#55ddff;stroke-width:1.09691417;stroke-linejoin:round;stroke-miterlimit:4;stroke-dasharray:none;stroke-dashoffset:0;stroke-opacity:1" />
    </g>
  </g>
</svg>
